<svg xmlns="http://www.w3.org/2000/svg" xmlns:xlink="http://www.w3.org/1999/xlink" width="2000" zoomAndPan="magnify" viewBox="0 0 1500 1499.999933" height="2000" preserveAspectRatio="xMidYMid meet" version="1.0"><defs><g/></defs><g fill="#ffffff" fill-opacity="1"><g transform="translate(802.278425, 805.874911)"><g><path d="M 89.640625 -54 L 105.8125 -54 L 105.8125 -13.03125 C 100.15625 -8.738281 93.476562 -5.257812 85.78125 -2.59375 C 78.09375 0.0703125 70.535156 1.40625 63.109375 1.40625 C 52.429688 1.40625 42.671875 -1.101562 33.828125 -6.125 C 24.984375 -11.144531 18.023438 -17.945312 12.953125 -26.53125 C 7.878906 -35.113281 5.34375 -44.632812 5.34375 -55.09375 C 5.34375 -65.457031 7.929688 -74.929688 13.109375 -83.515625 C 18.285156 -92.097656 25.375 -98.847656 34.375 -103.765625 C 43.375 -108.679688 53.316406 -111.140625 64.203125 -111.140625 C 71.953125 -111.140625 79.566406 -109.726562 87.046875 -106.90625 C 94.523438 -104.082031 100.988281 -100.265625 106.4375 -95.453125 L 95.921875 -81.953125 C 91.628906 -85.921875 86.707031 -89.003906 81.15625 -91.203125 C 75.613281 -93.398438 69.960938 -94.5 64.203125 -94.5 C 56.878906 -94.5 50.15625 -92.742188 44.03125 -89.234375 C 37.90625 -85.734375 33.0625 -80.972656 29.5 -74.953125 C 25.945312 -68.941406 24.171875 -62.320312 24.171875 -55.09375 C 24.171875 -47.769531 25.945312 -41.070312 29.5 -35 C 33.0625 -28.9375 37.929688 -24.148438 44.109375 -20.640625 C 50.285156 -17.140625 57.035156 -15.390625 64.359375 -15.390625 C 68.441406 -15.390625 72.679688 -16.066406 77.078125 -17.421875 C 81.472656 -18.785156 85.660156 -20.671875 89.640625 -23.078125 Z M 89.640625 -54 "/></g></g></g><g fill="#ffffff" fill-opacity="1"><g transform="translate(919.850974, 805.874911)"><g><path d="M 14.4375 0 L 14.4375 -109.890625 L 32.96875 -109.890625 L 32.96875 -16.796875 L 80.53125 -16.796875 L 80.53125 0 Z M 14.4375 0 "/></g></g></g><g fill="#ffffff" fill-opacity="1"><g transform="translate(1003.674396, 805.874911)"><g><path d="M 63.578125 -111.140625 C 74.359375 -111.140625 84.195312 -108.679688 93.09375 -103.765625 C 101.988281 -98.847656 109 -92.097656 114.125 -83.515625 C 119.25 -74.929688 121.8125 -65.457031 121.8125 -55.09375 C 121.8125 -44.632812 119.25 -35.113281 114.125 -26.53125 C 109 -17.945312 101.988281 -11.144531 93.09375 -6.125 C 84.195312 -1.101562 74.359375 1.40625 63.578125 1.40625 C 52.796875 1.40625 42.957031 -1.101562 34.0625 -6.125 C 25.164062 -11.144531 18.15625 -17.945312 13.03125 -26.53125 C 7.90625 -35.113281 5.34375 -44.632812 5.34375 -55.09375 C 5.34375 -65.457031 7.90625 -74.929688 13.03125 -83.515625 C 18.15625 -92.097656 25.164062 -98.847656 34.0625 -103.765625 C 42.957031 -108.679688 52.796875 -111.140625 63.578125 -111.140625 Z M 63.734375 -94.34375 C 56.617188 -94.34375 50.023438 -92.585938 43.953125 -89.078125 C 37.878906 -85.578125 33.0625 -80.84375 29.5 -74.875 C 25.945312 -68.914062 24.171875 -62.320312 24.171875 -55.09375 C 24.171875 -47.875 25.972656 -41.226562 29.578125 -35.15625 C 33.191406 -29.09375 38.007812 -24.28125 44.03125 -20.71875 C 50.050781 -17.164062 56.617188 -15.390625 63.734375 -15.390625 C 70.847656 -15.390625 77.390625 -17.164062 83.359375 -20.71875 C 89.328125 -24.28125 94.0625 -29.09375 97.5625 -35.15625 C 101.070312 -41.226562 102.828125 -47.875 102.828125 -55.09375 C 102.828125 -62.320312 101.070312 -68.914062 97.5625 -74.875 C 94.0625 -80.84375 89.328125 -85.578125 83.359375 -89.078125 C 77.390625 -92.585938 70.847656 -94.34375 63.734375 -94.34375 Z M 63.734375 -94.34375 "/></g></g></g><g fill="#ffffff" fill-opacity="1"><g transform="translate(1130.822275, 805.874911)"><g><path d="M 81.3125 -83.671875 C 75.664062 -87.128906 70.015625 -89.691406 64.359375 -91.359375 C 58.710938 -93.035156 53.640625 -93.875 49.140625 -93.875 C 43.691406 -93.875 39.34375 -92.851562 36.09375 -90.8125 C 32.851562 -88.769531 31.234375 -85.867188 31.234375 -82.109375 C 31.234375 -78.753906 32.28125 -75.976562 34.375 -73.78125 C 36.46875 -71.582031 39.082031 -69.851562 42.21875 -68.59375 C 45.363281 -67.34375 49.765625 -65.828125 55.421875 -64.046875 C 62.847656 -61.742188 68.890625 -59.519531 73.546875 -57.375 C 78.203125 -55.226562 82.175781 -52.035156 85.46875 -47.796875 C 88.769531 -43.554688 90.421875 -37.984375 90.421875 -31.078125 C 90.421875 -24.585938 88.664062 -18.910156 85.15625 -14.046875 C 81.65625 -9.179688 76.765625 -5.441406 70.484375 -2.828125 C 64.203125 -0.210938 57.035156 1.09375 48.984375 1.09375 C 40.503906 1.09375 32.335938 -0.472656 24.484375 -3.609375 C 16.640625 -6.742188 9.835938 -11.035156 4.078125 -16.484375 L 12.09375 -32.5 C 17.632812 -27.363281 23.726562 -23.359375 30.375 -20.484375 C 37.019531 -17.609375 43.328125 -16.171875 49.296875 -16.171875 C 55.679688 -16.171875 60.703125 -17.398438 64.359375 -19.859375 C 68.023438 -22.316406 69.859375 -25.691406 69.859375 -29.984375 C 69.859375 -33.441406 68.785156 -36.269531 66.640625 -38.46875 C 64.492188 -40.664062 61.796875 -42.414062 58.546875 -43.71875 C 55.304688 -45.03125 50.914062 -46.519531 45.375 -48.1875 C 37.832031 -50.382812 31.785156 -52.53125 27.234375 -54.625 C 22.679688 -56.71875 18.753906 -59.859375 15.453125 -64.046875 C 12.160156 -68.234375 10.515625 -73.726562 10.515625 -80.53125 C 10.515625 -86.707031 12.1875 -92.125 15.53125 -96.78125 C 18.882812 -101.4375 23.597656 -105.046875 29.671875 -107.609375 C 35.742188 -110.171875 42.703125 -111.453125 50.546875 -111.453125 C 57.453125 -111.453125 64.253906 -110.40625 70.953125 -108.3125 C 77.648438 -106.21875 83.671875 -103.445312 89.015625 -100 Z M 81.3125 -83.671875 "/></g></g></g><g fill="#ffffff" fill-opacity="1"><g transform="translate(1228.459299, 805.874911)"><g><path d="M 81.3125 -83.671875 C 75.664062 -87.128906 70.015625 -89.691406 64.359375 -91.359375 C 58.710938 -93.035156 53.640625 -93.875 49.140625 -93.875 C 43.691406 -93.875 39.34375 -92.851562 36.09375 -90.8125 C 32.851562 -88.769531 31.234375 -85.867188 31.234375 -82.109375 C 31.234375 -78.753906 32.28125 -75.976562 34.375 -73.78125 C 36.46875 -71.582031 39.082031 -69.851562 42.21875 -68.59375 C 45.363281 -67.34375 49.765625 -65.828125 55.421875 -64.046875 C 62.847656 -61.742188 68.890625 -59.519531 73.546875 -57.375 C 78.203125 -55.226562 82.175781 -52.035156 85.46875 -47.796875 C 88.769531 -43.554688 90.421875 -37.984375 90.421875 -31.078125 C 90.421875 -24.585938 88.664062 -18.910156 85.15625 -14.046875 C 81.65625 -9.179688 76.765625 -5.441406 70.484375 -2.828125 C 64.203125 -0.210938 57.035156 1.09375 48.984375 1.09375 C 40.503906 1.09375 32.335938 -0.472656 24.484375 -3.609375 C 16.640625 -6.742188 9.835938 -11.035156 4.078125 -16.484375 L 12.09375 -32.5 C 17.632812 -27.363281 23.726562 -23.359375 30.375 -20.484375 C 37.019531 -17.609375 43.328125 -16.171875 49.296875 -16.171875 C 55.679688 -16.171875 60.703125 -17.398438 64.359375 -19.859375 C 68.023438 -22.316406 69.859375 -25.691406 69.859375 -29.984375 C 69.859375 -33.441406 68.785156 -36.269531 66.640625 -38.46875 C 64.492188 -40.664062 61.796875 -42.414062 58.546875 -43.71875 C 55.304688 -45.03125 50.914062 -46.519531 45.375 -48.1875 C 37.832031 -50.382812 31.785156 -52.53125 27.234375 -54.625 C 22.679688 -56.71875 18.753906 -59.859375 15.453125 -64.046875 C 12.160156 -68.234375 10.515625 -73.726562 10.515625 -80.53125 C 10.515625 -86.707031 12.1875 -92.125 15.53125 -96.78125 C 18.882812 -101.4375 23.597656 -105.046875 29.671875 -107.609375 C 35.742188 -110.171875 42.703125 -111.453125 50.546875 -111.453125 C 57.453125 -111.453125 64.253906 -110.40625 70.953125 -108.3125 C 77.648438 -106.21875 83.671875 -103.445312 89.015625 -100 Z M 81.3125 -83.671875 "/></g></g></g><g fill="#828484" fill-opacity="1"><g transform="translate(176.906232, 796.423087)"><g><path d="M 1.113281 -5.5625 L 60.511719 -111.160156 L 129.269531 11.34375 L 94.226562 11.34375 L 50.605469 -66.507812 L 60.5 -72.050781 L 70.390625 -66.496094 L 26.660156 11.34375 L -8.394531 11.34375 Z M 20.886719 5.5625 L 11 0 L 11 -11.34375 L 20.019531 -11.34375 L 20.019531 0 L 10.128906 -5.554688 L 60.515625 -95.234375 L 110.769531 -5.546875 L 100.871094 0 L 100.871094 -11.34375 L 109.890625 -11.34375 L 109.890625 0 L 100 5.550781 L 50.609375 -82.449219 L 60.5 -88.003906 L 70.386719 -82.441406 Z M 20.886719 5.5625 "/></g></g></g><g fill="#828484" fill-opacity="1"><g transform="translate(283.487327, 796.423087)"><g><path d="M -0.34375 -80.632812 L -0.34375 -99.347656 L 110.347656 -99.347656 L 110.347656 -69.289062 L 58.742188 -69.289062 L 58.742188 -80.632812 L 70.085938 -80.632812 L 70.085938 11.34375 L 39.917969 11.34375 L 39.917969 -80.632812 L 51.261719 -80.632812 L 51.261719 -69.289062 L -0.34375 -69.289062 Z M 22.34375 -80.632812 L 11 -80.632812 L 11 -91.976562 L 62.605469 -91.976562 L 62.605469 0 L 51.261719 0 L 51.261719 -11.34375 L 58.742188 -11.34375 L 58.742188 0 L 47.398438 0 L 47.398438 -91.976562 L 99.003906 -91.976562 L 99.003906 -80.632812 L 87.660156 -80.632812 L 87.660156 -88.003906 L 99.003906 -88.003906 L 99.003906 -76.65625 L 11 -76.65625 L 11 -88.003906 L 22.34375 -88.003906 Z M 22.34375 -80.632812 "/></g></g></g><g fill="#828484" fill-opacity="1"><g transform="translate(411.079934, 796.423087)"><g><path d="M 75.132812 -18.714844 L 110.347656 -18.714844 L 110.347656 11.34375 L -0.34375 11.34375 L -0.34375 -99.347656 L 29.714844 -99.347656 L 29.714844 -7.371094 L 18.371094 -7.371094 L 18.371094 -18.714844 Z M 75.132812 3.972656 L 7.027344 3.972656 L 7.027344 -88.003906 L 18.371094 -88.003906 L 18.371094 -76.65625 L 11 -76.65625 L 11 -88.003906 L 22.34375 -88.003906 L 22.34375 0 L 11 0 L 11 -11.34375 L 99.003906 -11.34375 L 99.003906 0 L 87.660156 0 L 87.660156 -7.371094 L 99.003906 -7.371094 L 99.003906 3.972656 Z M 75.132812 3.972656 "/></g></g></g><g fill="#828484" fill-opacity="1"><g transform="translate(538.672525, 796.423087)"><g><path d="M 1.113281 -5.5625 L 60.511719 -111.160156 L 129.269531 11.34375 L 94.226562 11.34375 L 50.605469 -66.507812 L 60.5 -72.050781 L 70.390625 -66.496094 L 26.660156 11.34375 L -8.394531 11.34375 Z M 20.886719 5.5625 L 11 0 L 11 -11.34375 L 20.019531 -11.34375 L 20.019531 0 L 10.128906 -5.554688 L 60.515625 -95.234375 L 110.769531 -5.546875 L 100.871094 0 L 100.871094 -11.34375 L 109.890625 -11.34375 L 109.890625 0 L 100 5.550781 L 50.609375 -82.449219 L 60.5 -88.003906 L 70.386719 -82.441406 Z M 20.886719 5.5625 "/></g></g></g><g fill="#828484" fill-opacity="1"><g transform="translate(677.154358, 796.423087)"><g><path d="M 34.871094 -99.347656 L 110.347656 -99.347656 L 110.347656 -69.289062 L 34.871094 -69.289062 C 34.105469 -69.289062 33.445312 -69.171875 32.894531 -68.945312 C 32.339844 -68.714844 31.785156 -68.320312 31.230469 -67.769531 C 30.679688 -67.21875 30.289062 -66.664062 30.058594 -66.109375 C 29.828125 -65.554688 29.714844 -64.898438 29.714844 -64.132812 C 29.714844 -63.371094 29.828125 -62.722656 30.050781 -62.1875 C 30.273438 -61.652344 30.652344 -61.121094 31.1875 -60.59375 C 31.738281 -60.050781 32.292969 -59.660156 32.851562 -59.433594 C 33.417969 -59.199219 34.089844 -59.085938 34.871094 -59.085938 L 75.132812 -59.085938 C 79.933594 -59.085938 84.4375 -58.214844 88.640625 -56.476562 C 92.84375 -54.738281 96.644531 -52.171875 100.039062 -48.777344 C 103.433594 -45.382812 106 -41.585938 107.738281 -37.378906 C 109.476562 -33.175781 110.347656 -28.671875 110.347656 -23.871094 C 110.347656 -19.066406 109.476562 -14.566406 107.738281 -10.363281 C 106 -6.15625 103.433594 -2.355469 100.039062 1.035156 C 96.644531 4.429688 92.84375 6.996094 88.640625 8.734375 C 84.4375 10.476562 79.933594 11.34375 75.132812 11.34375 L -0.34375 11.34375 L -0.34375 -18.714844 L 75.132812 -18.714844 C 75.898438 -18.714844 76.554688 -18.828125 77.109375 -19.058594 C 77.664062 -19.289062 78.21875 -19.679688 78.769531 -20.230469 C 79.324219 -20.785156 79.714844 -21.335938 79.945312 -21.894531 C 80.171875 -22.445312 80.289062 -23.105469 80.289062 -23.871094 C 80.289062 -24.628906 80.175781 -25.277344 79.953125 -25.816406 C 79.730469 -26.347656 79.351562 -26.878906 78.816406 -27.410156 C 78.265625 -27.953125 77.710938 -28.339844 77.148438 -28.570312 C 76.585938 -28.800781 75.914062 -28.917969 75.132812 -28.917969 L 34.871094 -28.917969 C 30.066406 -28.917969 25.566406 -29.785156 21.363281 -31.523438 C 17.15625 -33.265625 13.355469 -35.832031 9.964844 -39.226562 C 6.570312 -42.617188 4.003906 -46.417969 2.265625 -50.625 C 0.527344 -54.828125 -0.34375 -59.328125 -0.34375 -64.132812 C -0.34375 -68.933594 0.527344 -73.4375 2.265625 -77.640625 C 4.003906 -81.84375 6.570312 -85.644531 9.964844 -89.039062 C 13.355469 -92.429688 17.15625 -95 21.363281 -96.738281 C 25.566406 -98.476562 30.066406 -99.347656 34.871094 -99.347656 Z M 34.871094 -76.65625 C 33.074219 -76.65625 31.460938 -76.363281 30.035156 -75.773438 C 28.613281 -75.183594 27.269531 -74.257812 26.007812 -72.996094 C 24.742188 -71.730469 23.816406 -70.390625 23.230469 -68.964844 C 22.640625 -67.539062 22.34375 -65.929688 22.34375 -64.132812 C 22.34375 -62.332031 22.640625 -60.722656 23.230469 -59.296875 C 23.816406 -57.875 24.742188 -56.53125 26.007812 -55.265625 C 27.269531 -54.003906 28.613281 -53.078125 30.035156 -52.488281 C 31.460938 -51.898438 33.074219 -51.605469 34.871094 -51.605469 L 75.132812 -51.605469 C 78.898438 -51.605469 82.441406 -50.921875 85.761719 -49.558594 C 89.089844 -48.195312 92.089844 -46.1875 94.765625 -43.542969 C 97.460938 -40.882812 99.5 -37.882812 100.890625 -34.546875 C 102.28125 -31.21875 102.976562 -27.65625 102.976562 -23.871094 C 102.976562 -20.089844 102.285156 -16.53125 100.898438 -13.195312 C 99.515625 -9.867188 97.488281 -6.863281 94.8125 -4.1875 C 92.136719 -1.515625 89.136719 0.515625 85.804688 1.898438 C 82.46875 3.28125 78.914062 3.972656 75.132812 3.972656 L 11 3.972656 L 11 -7.371094 L 22.34375 -7.371094 L 22.34375 0 L 11 0 L 11 -11.34375 L 75.132812 -11.34375 C 76.929688 -11.34375 78.539062 -11.640625 79.964844 -12.230469 C 81.390625 -12.816406 82.730469 -13.742188 83.996094 -15.007812 C 85.257812 -16.269531 86.183594 -17.613281 86.773438 -19.035156 C 87.363281 -20.460938 87.660156 -22.074219 87.660156 -23.871094 C 87.660156 -25.667969 87.363281 -27.28125 86.773438 -28.707031 C 86.183594 -30.128906 85.257812 -31.472656 83.996094 -32.734375 C 82.730469 -33.996094 81.390625 -34.925781 79.964844 -35.511719 C 78.539062 -36.101562 76.929688 -36.398438 75.132812 -36.398438 L 34.871094 -36.398438 C 31.105469 -36.398438 27.5625 -37.078125 24.238281 -38.441406 C 20.914062 -39.808594 17.910156 -41.8125 15.234375 -44.460938 C 12.542969 -47.121094 10.5 -50.117188 9.109375 -53.453125 C 7.722656 -56.785156 7.027344 -60.34375 7.027344 -64.132812 C 7.027344 -67.910156 7.71875 -71.46875 9.101562 -74.804688 C 10.484375 -78.136719 12.515625 -81.136719 15.1875 -83.8125 C 17.863281 -86.488281 20.867188 -88.515625 24.195312 -89.898438 C 27.53125 -91.285156 31.089844 -91.976562 34.871094 -91.976562 L 99.003906 -91.976562 L 99.003906 -80.632812 L 87.660156 -80.632812 L 87.660156 -88.003906 L 99.003906 -88.003906 L 99.003906 -76.65625 Z M 34.871094 -76.65625 "/></g></g></g><g fill="#828484" fill-opacity="1"><g transform="translate(176.906232, 796.423087)"><g><path d="M 11 0 L 60.5 -88 L 109.890625 0 L 100.875 0 L 60.5 -72.046875 L 20.015625 0 Z M 11 0 "/></g></g></g><g fill="#828484" fill-opacity="1"><g transform="translate(283.487327, 796.423087)"><g><path d="M 11 -80.625 L 11 -88 L 99 -88 L 99 -80.625 L 58.734375 -80.625 L 58.734375 0 L 51.265625 0 L 51.265625 -80.625 Z M 11 -80.625 "/></g></g></g><g fill="#828484" fill-opacity="1"><g transform="translate(411.079934, 796.423087)"><g><path d="M 75.125 -7.375 L 99 -7.375 L 99 0 L 11 0 L 11 -88 L 18.375 -88 L 18.375 -7.375 Z M 75.125 -7.375 "/></g></g></g><g fill="#828484" fill-opacity="1"><g transform="translate(538.672525, 796.423087)"><g><path d="M 11 0 L 60.5 -88 L 109.890625 0 L 100.875 0 L 60.5 -72.046875 L 20.015625 0 Z M 11 0 "/></g></g></g><g fill="#828484" fill-opacity="1"><g transform="translate(677.154358, 796.423087)"><g><path d="M 34.875 -88 L 99 -88 L 99 -80.625 L 34.875 -80.625 C 30.320312 -80.625 26.429688 -79.007812 23.203125 -75.78125 C 19.984375 -72.5625 18.375 -68.675781 18.375 -64.125 C 18.375 -59.582031 19.984375 -55.710938 23.203125 -52.515625 C 26.429688 -49.328125 30.320312 -47.734375 34.875 -47.734375 L 75.125 -47.734375 C 81.726562 -47.734375 87.359375 -45.40625 92.015625 -40.75 C 96.671875 -36.09375 99 -30.460938 99 -23.859375 C 99 -17.265625 96.671875 -11.640625 92.015625 -6.984375 C 87.359375 -2.328125 81.726562 0 75.125 0 L 11 0 L 11 -7.375 L 75.125 -7.375 C 79.675781 -7.375 83.5625 -8.984375 86.78125 -12.203125 C 90.007812 -15.429688 91.625 -19.316406 91.625 -23.859375 C 91.625 -28.410156 90.007812 -32.28125 86.78125 -35.46875 C 83.5625 -38.664062 79.675781 -40.265625 75.125 -40.265625 L 34.875 -40.265625 C 28.269531 -40.265625 22.640625 -42.59375 17.984375 -47.25 C 13.328125 -51.90625 11 -57.53125 11 -64.125 C 11 -70.726562 13.328125 -76.359375 17.984375 -81.015625 C 22.640625 -85.671875 28.269531 -88 34.875 -88 Z M 34.875 -88 "/></g></g></g></svg>