<svg width="1535" height="165" viewBox="0 0 1535 165" fill="none" xmlns="http://www.w3.org/2000/svg">
<g clip-path="url(#clip0_2_6)">
<path d="M965.225 89.5H986.788V144.125C979.246 149.849 970.34 154.49 960.08 158.042C949.83 161.594 939.751 163.375 929.85 163.375C915.611 163.375 902.6 160.031 890.809 153.333C879.017 146.641 869.736 137.573 862.975 126.125C856.21 114.682 852.83 101.99 852.83 88.0416C852.83 74.2239 856.278 61.5937 863.184 50.1458C870.085 38.7031 879.538 29.7031 891.538 23.1458C903.538 16.5937 916.793 13.3125 931.309 13.3125C941.642 13.3125 951.793 15.1979 961.767 18.9583C971.736 22.7239 980.356 27.8125 987.621 34.2291L973.6 52.2291C967.876 46.9375 961.314 42.8281 953.913 39.8958C946.522 36.9687 938.986 35.5 931.309 35.5C921.543 35.5 912.58 37.8437 904.413 42.5208C896.246 47.1875 889.788 53.5364 885.038 61.5625C880.298 69.5781 877.934 78.4062 877.934 88.0416C877.934 97.8073 880.298 106.74 885.038 114.833C889.788 122.917 896.278 129.302 904.517 133.979C912.751 138.646 921.751 140.979 931.517 140.979C936.96 140.979 942.611 140.078 948.475 138.271C954.335 136.453 959.918 133.937 965.225 130.729V89.5Z" fill="#8D97A0"/>
<path d="M1021.72 161.5V14.9791H1046.43V139.104H1109.84V161.5H1021.72Z" fill="#8D97A0"/>
<path d="M1199 13.3125C1213.38 13.3125 1226.49 16.5937 1238.36 23.1458C1250.22 29.7031 1259.57 38.7031 1266.4 50.1458C1273.23 61.5937 1276.65 74.2239 1276.65 88.0416C1276.65 101.99 1273.23 114.682 1266.4 126.125C1259.57 137.573 1250.22 146.641 1238.36 153.333C1226.49 160.031 1213.38 163.375 1199 163.375C1184.63 163.375 1171.51 160.031 1159.65 153.333C1147.78 146.641 1138.44 137.573 1131.61 126.125C1124.77 114.682 1121.36 101.99 1121.36 88.0416C1121.36 74.2239 1124.77 61.5937 1131.61 50.1458C1138.44 38.7031 1147.78 29.7031 1159.65 23.1458C1171.51 16.5937 1184.63 13.3125 1199 13.3125ZM1199.21 35.7083C1189.72 35.7083 1180.93 38.052 1172.84 42.7291C1164.74 47.3958 1158.32 53.7083 1153.57 61.6666C1148.83 69.6145 1146.46 78.4062 1146.46 88.0416C1146.46 97.6666 1148.86 106.531 1153.67 114.625C1158.49 122.708 1164.91 129.125 1172.94 133.875C1180.97 138.615 1189.72 140.979 1199.21 140.979C1208.7 140.979 1217.42 138.615 1225.38 133.875C1233.34 129.125 1239.65 122.708 1244.32 114.625C1248.99 106.531 1251.34 97.6666 1251.34 88.0416C1251.34 78.4062 1248.99 69.6145 1244.32 61.6666C1239.65 53.7083 1233.34 47.3958 1225.38 42.7291C1217.42 38.052 1208.7 35.7083 1199.21 35.7083Z" fill="#8D97A0"/>
<path d="M1392.18 49.9375C1384.65 45.3281 1377.12 41.9114 1369.58 39.6875C1362.04 37.4531 1355.28 36.3333 1349.28 36.3333C1342.02 36.3333 1336.22 37.6979 1331.89 40.4166C1327.57 43.1406 1325.41 47.0104 1325.41 52.0208C1325.41 56.4948 1326.8 60.1979 1329.6 63.125C1332.39 66.0573 1335.87 68.3646 1340.05 70.0416C1344.25 71.7083 1350.12 73.7291 1357.66 76.1041C1367.56 79.177 1375.62 82.1406 1381.83 85C1388.03 87.8645 1393.33 92.1198 1397.72 97.7708C1402.12 103.427 1404.33 110.854 1404.33 120.062C1404.33 128.719 1401.98 136.286 1397.3 142.771C1392.64 149.26 1386.12 154.245 1377.74 157.729C1369.37 161.219 1359.81 162.958 1349.08 162.958C1337.77 162.958 1326.88 160.87 1316.41 156.687C1305.95 152.51 1296.88 146.786 1289.2 139.521L1299.89 118.167C1307.27 125.016 1315.4 130.354 1324.26 134.187C1333.12 138.021 1341.53 139.937 1349.49 139.937C1358 139.937 1364.7 138.302 1369.58 135.021C1374.46 131.745 1376.91 127.245 1376.91 121.521C1376.91 116.911 1375.48 113.141 1372.62 110.208C1369.75 107.281 1366.16 104.948 1361.83 103.208C1357.5 101.458 1351.65 99.4739 1344.26 97.25C1334.21 94.3229 1326.14 91.4583 1320.08 88.6666C1314 85.875 1308.77 81.6875 1304.37 76.1041C1299.98 70.5208 1297.78 63.1979 1297.78 54.125C1297.78 45.8906 1300.01 38.6666 1304.47 32.4583C1308.94 26.25 1315.23 21.4375 1323.33 18.0208C1331.42 14.6041 1340.7 12.8958 1351.16 12.8958C1360.37 12.8958 1369.43 14.2916 1378.37 17.0833C1387.29 19.875 1395.33 23.5729 1402.45 28.1666L1392.18 49.9375Z" fill="#8D97A0"/>
<path d="M1522.36 49.9375C1514.83 45.3281 1507.3 41.9114 1499.76 39.6875C1492.23 37.4531 1485.47 36.3333 1479.47 36.3333C1472.2 36.3333 1466.4 37.6979 1462.07 40.4166C1457.75 43.1406 1455.59 47.0104 1455.59 52.0208C1455.59 56.4948 1456.99 60.1979 1459.78 63.125C1462.57 66.0573 1466.06 68.3646 1470.24 70.0416C1474.43 71.7083 1480.3 73.7291 1487.84 76.1041C1497.74 79.177 1505.8 82.1406 1512.01 85C1518.22 87.8645 1523.51 92.1198 1527.9 97.7708C1532.31 103.427 1534.51 110.854 1534.51 120.062C1534.51 128.719 1532.16 136.286 1527.49 142.771C1522.82 149.26 1516.3 154.245 1507.92 157.729C1499.55 161.219 1489.99 162.958 1479.26 162.958C1467.95 162.958 1457.06 160.87 1446.59 156.687C1436.13 152.51 1427.06 146.786 1419.38 139.521L1430.07 118.167C1437.46 125.016 1445.58 130.354 1454.45 134.187C1463.31 138.021 1471.72 139.937 1479.67 139.937C1488.19 139.937 1494.88 138.302 1499.76 135.021C1504.64 131.745 1507.09 127.245 1507.09 121.521C1507.09 116.911 1505.66 113.141 1502.8 110.208C1499.94 107.281 1496.34 104.948 1492.01 103.208C1487.69 101.458 1481.83 99.4739 1474.45 97.25C1464.39 94.3229 1456.33 91.4583 1450.26 88.6666C1444.19 85.875 1438.95 81.6875 1434.55 76.1041C1430.16 70.5208 1427.97 63.1979 1427.97 54.125C1427.97 45.8906 1430.2 38.6666 1434.65 32.4583C1439.12 26.25 1445.41 21.4375 1453.51 18.0208C1461.6 14.6041 1470.88 12.8958 1481.34 12.8958C1490.55 12.8958 1499.62 14.2916 1508.55 17.0833C1517.48 19.875 1525.51 23.5729 1532.63 28.1666L1522.36 49.9375Z" fill="#8D97A0"/>
<path d="M13.3593 141.481L92.5573 0.68396L184.234 164.023H137.51L79.3489 60.2204L92.5416 52.8298L105.729 60.236L47.4218 164.023H0.682251L13.3593 141.481ZM39.7239 156.314L26.5416 148.898V133.773H38.5677V148.898L25.3802 141.491L92.5625 21.9183L159.568 141.502L146.37 148.898V133.773H158.396V148.898L145.208 156.299L79.3541 38.9652L92.5416 31.559L105.724 38.9756L39.7239 156.314Z" fill="#0161AE"/>
<path d="M153.525 41.3871V16.434H301.113V56.5121H232.306V41.3871H247.431V164.023H207.207V41.3871H222.332V56.5121H153.525V41.3871ZM183.775 41.3871H168.65V26.2621H237.457V148.898H222.332V133.773H232.306V148.898H217.181V26.2621H285.988V41.3871H270.863V31.559H285.988V46.6892H168.65V31.559H183.775V41.3871Z" fill="#0161AE"/>
<path d="M424.284 123.944H471.237V164.023H323.648V16.434H363.726V139.069H348.601V123.944H424.284ZM424.284 154.194H333.476V31.559H348.601V46.6892H338.773V31.559H353.898V148.898H338.773V133.773H456.112V148.898H440.987V139.069H456.112V154.194H424.284Z" fill="#0161AE"/>
<path d="M495.714 141.481L574.912 0.68396L666.589 164.023H619.865L561.704 60.2204L574.897 52.8298L588.084 60.236L529.777 164.023H483.037L495.714 141.481ZM522.079 156.314L508.897 148.898V133.773H520.923V148.898L507.735 141.491L574.918 21.9183L641.923 141.502L628.725 148.898V133.773H640.751V148.898L627.563 156.299L561.709 38.9652L574.897 31.559L588.079 38.9756L522.079 156.314Z" fill="#0161AE"/>
<path d="M725.367 16.434H826.003V56.5121H725.367C724.346 56.5121 723.466 56.6683 722.732 56.9704C721.992 57.2777 721.253 57.8038 720.513 58.5381C719.779 59.2725 719.258 60.0121 718.951 60.7517C718.643 61.4913 718.492 62.3663 718.492 63.3871C718.492 64.4027 718.643 65.2673 718.94 65.9808C719.237 66.6944 719.742 67.4027 720.456 68.1058C721.19 68.8298 721.93 69.3506 722.675 69.6527C723.43 69.9652 724.326 70.1163 725.367 70.1163H779.05C785.451 70.1163 791.456 71.2777 797.06 73.5954C802.664 75.9131 807.732 79.335 812.258 83.861C816.784 88.3871 820.206 93.4496 822.524 99.059C824.841 104.663 826.003 110.668 826.003 117.069C826.003 123.476 824.841 129.476 822.524 135.08C820.206 140.689 816.784 145.757 812.258 150.278C807.732 154.804 802.664 158.226 797.06 160.543C791.456 162.866 785.451 164.023 779.05 164.023H678.414V123.944H779.05C780.07 123.944 780.945 123.793 781.685 123.486C782.425 123.179 783.164 122.658 783.899 121.924C784.638 121.184 785.159 120.45 785.466 119.705C785.768 118.97 785.925 118.09 785.925 117.069C785.925 116.059 785.774 115.194 785.477 114.476C785.18 113.767 784.675 113.059 783.961 112.351C783.227 111.627 782.487 111.111 781.737 110.804C780.987 110.496 780.091 110.34 779.05 110.34H725.367C718.961 110.34 712.961 109.184 707.357 106.866C701.747 104.543 696.68 101.121 692.159 96.5954C687.633 92.0746 684.211 87.0069 681.893 81.3975C679.576 75.7933 678.414 69.7933 678.414 63.3871C678.414 56.986 679.576 50.9808 681.893 45.3767C684.211 39.7725 687.633 34.7048 692.159 30.1788C696.68 25.6579 701.747 22.2308 707.357 19.9131C712.961 17.5954 718.961 16.434 725.367 16.434ZM725.367 46.6892C722.971 46.6892 720.82 47.0798 718.919 47.8663C717.024 48.6527 715.232 49.8871 713.55 51.5694C711.862 53.2569 710.628 55.0433 709.846 56.9444C709.06 58.8454 708.664 60.9913 708.664 63.3871C708.664 65.7881 709.06 67.934 709.846 69.835C710.628 71.7308 711.862 73.5225 713.55 75.21C715.232 76.8923 717.024 78.1267 718.919 78.9131C720.82 79.6996 722.971 80.0902 725.367 80.0902H779.05C784.07 80.0902 788.794 81.0017 793.221 82.8194C797.659 84.6371 801.659 87.3142 805.227 90.8402C808.82 94.3871 811.539 98.3871 813.393 102.835C815.247 107.273 816.175 112.023 816.175 117.069C816.175 122.111 815.253 126.856 813.404 131.304C811.56 135.741 808.857 139.746 805.289 143.314C801.721 146.877 797.721 149.585 793.279 151.429C788.831 153.273 784.091 154.194 779.05 154.194H693.539V139.069H708.664V148.898H693.539V133.773H779.05C781.445 133.773 783.591 133.377 785.492 132.59C787.393 131.809 789.18 130.575 790.867 128.887C792.55 127.205 793.784 125.413 794.57 123.517C795.357 121.616 795.753 119.465 795.753 117.069C795.753 114.674 795.357 112.523 794.57 110.621C793.784 108.726 792.55 106.934 790.867 105.252C789.18 103.569 787.393 102.33 785.492 101.549C783.591 100.762 781.445 100.366 779.05 100.366H725.367C720.346 100.366 715.622 99.46 711.19 97.6423C706.758 95.8194 702.753 93.1475 699.185 89.6163C695.596 86.0694 692.872 82.0746 691.018 77.6267C689.169 73.184 688.242 68.4392 688.242 63.3871C688.242 58.3506 689.164 53.6058 691.008 49.1579C692.852 44.7152 695.56 40.7152 699.122 37.1475C702.69 33.5798 706.695 30.8767 711.133 29.0329C715.581 27.184 720.326 26.2621 725.367 26.2621H810.878V41.3871H795.753V31.559H810.878V46.6892H725.367Z" fill="#0161AE"/>
<path d="M26.5416 148.898L92.5416 31.5642L158.396 148.898H146.375L92.5416 52.835L38.5625 148.898H26.5416Z" fill="#0161AE"/>
<path d="M168.65 41.3975V31.5642H285.983V41.3975H232.296V148.898H222.337V41.3975H168.65Z" fill="#0161AE"/>
<path d="M424.273 139.064H456.107V148.898H338.773V31.5642H348.607V139.064H424.273Z" fill="#0161AE"/>
<path d="M508.897 148.898L574.897 31.5642L640.751 148.898H628.73L574.897 52.835L520.918 148.898H508.897Z" fill="#0161AE"/>
<path d="M725.372 31.5642H810.872V41.3975H725.372C719.3 41.3975 714.112 43.5538 709.81 47.8558C705.518 52.1475 703.372 57.3298 703.372 63.3975C703.372 69.4548 705.518 74.6163 709.81 78.8767C714.112 83.1267 719.3 85.2517 725.372 85.2517H779.039C787.841 85.2517 795.352 88.3558 801.56 94.5642C807.768 100.773 810.872 108.283 810.872 117.085C810.872 125.877 807.768 133.377 801.56 139.585C795.352 145.793 787.841 148.898 779.039 148.898H693.539V139.064H779.039C785.107 139.064 790.289 136.918 794.581 132.627C798.883 128.325 801.039 123.142 801.039 117.085C801.039 111.017 798.883 105.856 794.581 101.606C790.289 97.3454 785.107 95.21 779.039 95.21H725.372C716.565 95.21 709.06 92.1058 702.852 85.8975C696.643 79.6892 693.539 72.1892 693.539 63.3975C693.539 54.5954 696.643 47.085 702.852 40.8767C709.06 34.6683 716.565 31.5642 725.372 31.5642Z" fill="#0161AE"/>
</g>
<defs>
<clipPath id="clip0_2_6">
<rect width="1535" height="165" fill="white"/>
</clipPath>
</defs>
</svg>
