<svg width="803" height="87" viewBox="0 0 803 87" fill="none" xmlns="http://www.w3.org/2000/svg">
<g clip-path="url(#clip0_2_67)">
<path d="M504.965 47.3075H516.242V75.8764C512.298 78.87 507.64 81.297 502.274 83.1548C496.913 85.0125 491.642 85.9441 486.464 85.9441C479.016 85.9441 472.212 84.1953 466.045 80.6923C459.878 77.192 455.024 72.4496 451.488 66.4624C447.95 60.4778 446.182 53.8395 446.182 46.5448C446.182 39.3181 447.985 32.7125 451.597 26.7253C455.206 20.7407 460.15 16.0337 466.426 12.6043C472.702 9.17752 479.635 7.46143 487.226 7.46143C492.631 7.46143 497.94 8.4475 503.156 10.4142C508.37 12.3836 512.878 15.0449 516.678 18.4008L509.345 27.8148C506.351 25.0473 502.919 22.8981 499.048 21.3645C495.183 19.8336 491.242 19.0655 487.226 19.0655C482.119 19.0655 477.431 20.2913 473.16 22.7374C468.889 25.1781 465.511 28.4986 463.027 32.6962C460.548 36.8883 459.311 41.5055 459.311 46.5448C459.311 51.6522 460.548 56.3238 463.027 60.5568C465.511 64.7844 468.905 68.124 473.214 70.5701C477.521 73.0108 482.228 74.2311 487.335 74.2311C490.182 74.2311 493.137 73.7598 496.205 72.8146C499.269 71.864 502.189 70.5483 504.965 68.8703V47.3075Z" fill="white"/>
<path d="M534.51 84.9635V8.33307H547.433V73.2504H580.6V84.9635H534.51Z" fill="white"/>
<path d="M627.231 7.46143C634.749 7.46143 641.608 9.17752 647.813 12.6043C654.015 16.0337 658.905 20.7407 662.479 26.7253C666.053 32.7125 667.84 39.3181 667.84 46.5448C667.84 53.8395 666.053 60.4778 662.479 66.4624C658.905 72.4496 654.015 77.192 647.813 80.6923C641.608 84.1953 634.749 85.9441 627.231 85.9441C619.713 85.9441 612.851 84.1953 606.649 80.6923C600.443 77.192 595.557 72.4496 591.983 66.4624C588.409 60.4778 586.622 53.8395 586.622 46.5448C586.622 39.3181 588.409 32.7125 591.983 26.7253C595.557 20.7407 600.443 16.0337 606.649 12.6043C612.851 9.17752 619.713 7.46143 627.231 7.46143ZM627.34 19.1744C622.377 19.1744 617.779 20.4002 613.546 22.8463C609.31 25.287 605.951 28.5884 603.467 32.7507C600.988 36.9074 599.751 41.5055 599.751 46.5448C599.751 51.5787 601.007 56.2148 603.521 60.4479C606.041 64.6754 609.4 68.0314 613.6 70.5156C617.798 72.9944 622.377 74.2311 627.34 74.2311C632.3 74.2311 636.863 72.9944 641.025 70.5156C645.187 68.0314 648.489 64.6754 650.929 60.4479C653.375 56.2148 654.601 51.5787 654.601 46.5448C654.601 41.5055 653.375 36.9074 650.929 32.7507C648.489 28.5884 645.187 25.287 641.025 22.8463C636.863 20.4002 632.3 19.1744 627.34 19.1744Z" fill="white"/>
<path d="M728.262 26.6163C724.323 24.2056 720.384 22.4187 716.44 21.2556C712.501 20.087 708.965 19.5013 705.827 19.5013C702.028 19.5013 698.996 20.215 696.729 21.6369C694.469 23.0616 693.341 25.0855 693.341 27.7059C693.341 30.0458 694.071 31.9825 695.531 33.5134C696.991 35.047 698.813 36.2537 701.001 37.1308C703.193 38.0025 706.263 39.0594 710.208 40.3015C715.386 41.9086 719.6 43.4586 722.847 44.954C726.094 46.4522 728.864 48.6777 731.16 51.6332C733.462 54.5914 734.614 58.4757 734.614 63.2917C734.614 67.8189 733.388 71.7768 730.942 75.1682C728.502 78.5622 725.091 81.169 720.711 82.9914C716.331 84.8164 711.333 85.7262 705.718 85.7262C699.805 85.7262 694.109 84.6339 688.634 82.4466C683.164 80.262 678.419 77.2683 674.404 73.4684L679.993 62.3002C683.856 65.8822 688.105 68.6742 692.742 70.6791C697.375 72.6839 701.774 73.6863 705.936 73.6863C710.387 73.6863 713.89 72.831 716.44 71.1149C718.995 69.4015 720.275 67.048 720.275 64.0544C720.275 61.6437 719.526 59.6716 718.031 58.138C716.533 56.6071 714.653 55.3868 712.387 54.477C710.126 53.5617 707.064 52.5239 703.202 51.3608C697.942 49.8299 693.725 48.3317 690.551 46.8717C687.375 45.4116 684.638 43.2216 682.336 40.3015C680.04 37.3814 678.893 33.5515 678.893 28.8064C678.893 24.4998 680.059 20.7217 682.39 17.4747C684.728 14.2278 688.015 11.7108 692.251 9.92391C696.484 8.13699 701.338 7.24353 706.808 7.24353C711.624 7.24353 716.366 7.97355 721.038 9.43359C725.707 10.8936 729.907 12.8276 733.634 15.2302L728.262 26.6163Z" fill="white"/>
<path d="M796.348 26.6163C792.409 24.2056 788.47 22.4187 784.526 21.2556C780.587 20.087 777.051 19.5013 773.913 19.5013C770.113 19.5013 767.081 20.215 764.815 21.6369C762.554 23.0616 761.426 25.0855 761.426 27.7059C761.426 30.0458 762.156 31.9825 763.616 33.5134C765.077 35.047 766.899 36.2537 769.086 37.1308C771.279 38.0025 774.349 39.0594 778.293 40.3015C783.471 41.9086 787.685 43.4586 790.932 44.954C794.179 46.4522 796.95 48.6777 799.246 51.6332C801.548 54.5914 802.7 58.4757 802.7 63.2917C802.7 67.8189 801.474 71.7768 799.028 75.1682C796.587 78.5622 793.177 81.169 788.797 82.9914C784.417 84.8164 779.418 85.7262 773.804 85.7262C767.89 85.7262 762.195 84.6339 756.719 82.4466C751.25 80.262 746.505 77.2683 742.489 73.4684L748.079 62.3002C751.942 65.8822 756.191 68.6742 760.827 70.6791C765.461 72.6839 769.86 73.6863 774.022 73.6863C778.473 73.6863 781.976 72.831 784.526 71.1149C787.081 69.4015 788.361 67.048 788.361 64.0544C788.361 61.6437 787.612 59.6716 786.116 58.138C784.618 56.6071 782.739 55.3868 780.472 54.477C778.211 53.5617 775.15 52.5239 771.287 51.3608C766.027 49.8299 761.81 48.3317 758.637 46.8717C755.461 45.4116 752.723 43.2216 750.422 40.3015C748.125 37.3814 746.979 33.5515 746.979 28.8064C746.979 24.4998 748.144 20.7217 750.476 17.4747C752.813 14.2278 756.101 11.7108 760.337 9.92391C764.57 8.13699 769.424 7.24353 774.894 7.24353C779.71 7.24353 784.452 7.97355 789.124 9.43359C793.792 10.8936 797.993 12.8276 801.719 15.2302L796.348 26.6163Z" fill="white"/>
<path d="M7.1389 74.4935L48.5594 0.856689L96.5065 86.2828H72.0699L41.6515 31.9943L48.5512 28.129L55.4483 32.0024L24.9536 86.2828H0.508789L7.1389 74.4935ZM20.9276 82.2513L14.0332 78.3724V70.462H20.3229V78.3724L13.4258 74.4989L48.5621 11.9623L83.6059 74.5044L76.7034 78.3724V70.462H82.993V78.3724L76.0959 82.2431L41.6542 20.8778L48.5512 17.0043L55.4456 20.8832L20.9276 82.2513Z" fill="#828484"/>
<path d="M80.4454 22.1445V9.09399H157.634V30.0549H121.648V22.1445H129.558V86.2828H108.521V22.1445H116.432V30.0549H80.4454V22.1445ZM96.2662 22.1445H88.3558V14.2341H124.342V78.3724H116.432V70.4621H121.648V78.3724H113.738V14.2341H149.724V22.1445H141.813V17.0044H149.724V24.9175H88.3558V17.0044H96.2662V22.1445Z" fill="#828484"/>
<path d="M222.052 65.3219H246.609V86.2828H169.42V9.09399H190.381V73.2323H182.471V65.3219H222.052ZM222.052 81.1427H174.56V17.0044H182.471V24.9175H177.33V17.0044H185.241V78.3724H177.33V70.4621H238.698V78.3724H230.788V73.2323H238.698V81.1427H222.052Z" fill="#828484"/>
<path d="M259.411 74.4935L300.831 0.856689L348.778 86.2828H324.342L293.923 31.9943L300.823 28.129L307.72 32.0024L277.225 86.2828H252.781L259.411 74.4935ZM273.199 82.2513L266.305 78.3724V70.462H272.595V78.3724L265.698 74.4989L300.834 11.9623L335.878 74.5044L328.975 78.3724V70.462H335.265V78.3724L328.368 82.2431L293.926 20.8778L300.823 17.0043L307.717 20.8832L273.199 82.2513Z" fill="#828484"/>
<path d="M379.519 9.09399H432.151V30.0549H379.519C378.985 30.0549 378.525 30.1366 378.141 30.2946C377.754 30.4553 377.367 30.7304 376.98 31.1145C376.596 31.4986 376.324 31.8854 376.163 32.2722C376.002 32.659 375.923 33.1166 375.923 33.6505C375.923 34.1817 376.002 34.6338 376.158 35.007C376.313 35.3802 376.577 35.7507 376.95 36.1184C377.334 36.497 377.721 36.7694 378.111 36.9274C378.506 37.0908 378.974 37.1698 379.519 37.1698H407.595C410.943 37.1698 414.083 37.7773 417.014 38.9894C419.945 40.2016 422.596 41.9912 424.963 44.3584C427.33 46.7255 429.12 49.3732 430.332 52.3069C431.544 55.2379 432.151 58.3786 432.151 61.7263C432.151 65.0768 431.544 68.2148 430.332 71.1458C429.12 74.0795 427.33 76.7299 424.963 79.0943C422.596 81.4614 419.945 83.251 417.014 84.4632C414.083 85.6781 410.943 86.2828 407.595 86.2828H354.963V65.3219H407.595C408.129 65.3219 408.586 65.243 408.973 65.0822C409.36 64.9215 409.747 64.6491 410.131 64.2651C410.518 63.8782 410.79 63.4942 410.951 63.1046C411.109 62.7206 411.191 62.2602 411.191 61.7263C411.191 61.1979 411.112 60.7457 410.956 60.3698C410.801 59.9993 410.537 59.6289 410.164 59.2584C409.78 58.8798 409.393 58.6101 409.001 58.4494C408.608 58.2887 408.14 58.207 407.595 58.207H379.519C376.169 58.207 373.031 57.6022 370.1 56.3901C367.166 55.1752 364.516 53.3856 362.151 51.0184C359.784 48.654 357.994 46.0036 356.782 43.0699C355.57 40.139 354.963 37.0009 354.963 33.6505C354.963 30.3027 355.57 27.162 356.782 24.231C357.994 21.3001 359.784 18.6496 362.151 16.2825C364.516 13.9181 367.166 12.1258 370.1 10.9136C373.031 9.70144 376.169 9.09399 379.519 9.09399ZM379.519 24.9175C378.266 24.9175 377.141 25.1218 376.147 25.5331C375.155 25.9444 374.218 26.59 373.338 27.4698C372.456 28.3524 371.81 29.2867 371.402 30.2809C370.99 31.2752 370.783 32.3975 370.783 33.6505C370.783 34.9062 370.99 36.0285 371.402 37.0227C371.81 38.0143 372.456 38.9513 373.338 39.8339C374.218 40.7137 375.155 41.3593 376.147 41.7706C377.141 42.1819 378.266 42.3862 379.519 42.3862H407.595C410.221 42.3862 412.691 42.8629 415.007 43.8136C417.328 44.7642 419.42 46.1643 421.286 48.0085C423.165 49.8635 424.587 51.9555 425.557 54.2817C426.526 56.6026 427.011 59.0868 427.011 61.7263C427.011 64.3631 426.529 66.8446 425.562 69.1709C424.598 71.4917 423.184 73.5864 421.318 75.4523C419.452 77.3155 417.36 78.732 415.037 79.6963C412.711 80.6606 410.232 81.1427 407.595 81.1427H362.873V73.2323H370.783V78.3724H362.873V70.4621H407.595C408.848 70.4621 409.97 70.255 410.964 69.8437C411.959 69.4351 412.893 68.7895 413.776 67.907C414.655 67.0271 415.301 66.0901 415.712 65.0986C416.124 64.1043 416.331 62.9793 416.331 61.7263C416.331 60.4733 416.124 59.3483 415.712 58.3541C415.301 57.3625 414.655 56.4255 413.776 55.5457C412.893 54.6658 411.959 54.0175 410.964 53.6089C409.97 53.1976 408.848 52.9906 407.595 52.9906H379.519C376.893 52.9906 374.423 52.5166 372.104 51.566C369.786 50.6126 367.692 49.2152 365.826 47.3683C363.949 45.5133 362.524 43.424 361.555 41.0978C360.588 38.7742 360.103 36.2927 360.103 33.6505C360.103 31.0164 360.585 28.5349 361.549 26.2086C362.513 23.8851 363.93 21.7931 365.793 19.9272C367.659 18.0613 369.754 16.6475 372.075 15.6832C374.401 14.7162 376.882 14.2341 379.519 14.2341H424.241V22.1445H416.331V17.0044H424.241V24.9175H379.519Z" fill="#828484"/>
<path d="M14.0333 78.3724L48.5513 17.0071L82.993 78.3724H76.7061L48.5513 28.1317L20.3202 78.3724H14.0333Z" fill="#828484"/>
<path d="M88.3558 22.1499V17.0071H149.721V22.1499H121.643V78.3724H116.434V22.1499H88.3558Z" fill="#828484"/>
<path d="M222.047 73.2296H238.696V78.3724H177.33V17.0071H182.473V73.2296H222.047Z" fill="#828484"/>
<path d="M266.305 78.3724L300.823 17.0071L335.265 78.3724H328.978L300.823 28.1317L272.592 78.3724H266.305Z" fill="#828484"/>
<path d="M379.522 17.0071H424.238V22.1499H379.522C376.346 22.1499 373.633 23.2776 371.383 25.5276C369.138 27.7722 368.016 30.4825 368.016 33.6559C368.016 36.8239 369.138 39.5233 371.383 41.7515C373.633 43.9743 376.346 45.0856 379.522 45.0856H407.589C412.193 45.0856 416.121 46.7091 419.368 49.9561C422.615 53.203 424.238 57.131 424.238 61.7345C424.238 66.3325 422.615 70.255 419.368 73.502C416.121 76.7489 412.193 78.3724 407.589 78.3724H362.873V73.2296H407.589C410.763 73.2296 413.473 72.1073 415.718 69.8628C417.968 67.6128 419.095 64.9024 419.095 61.7345C419.095 58.5611 417.968 55.8616 415.718 53.6389C413.473 51.4107 410.763 50.2939 407.589 50.2939H379.522C374.916 50.2939 370.99 48.6704 367.743 45.4234C364.496 42.1765 362.873 38.254 362.873 33.6559C362.873 29.0524 364.496 25.1245 367.743 21.8775C370.99 18.6306 374.916 17.0071 379.522 17.0071Z" fill="#828484"/>
</g>
<defs>
<clipPath id="clip0_2_67">
<rect width="803" height="87" fill="white"/>
</clipPath>
</defs>
</svg>
