<svg width="1543" height="173" viewBox="0 0 1543 173" fill="none" xmlns="http://www.w3.org/2000/svg">
<g filter="url(#filter0_dd_2_6)">
<g clip-path="url(#clip0_2_6)">
<rect x="4" width="1535" height="165" fill="white"/>
<path d="M969.225 89.5H990.788V144.125C983.246 149.849 974.34 154.49 964.08 158.042C953.83 161.594 943.751 163.375 933.85 163.375C919.611 163.375 906.6 160.031 894.809 153.333C883.017 146.641 873.736 137.573 866.975 126.125C860.21 114.682 856.83 101.99 856.83 88.0416C856.83 74.2239 860.278 61.5937 867.184 50.1458C874.085 38.7031 883.538 29.7031 895.538 23.1458C907.538 16.5937 920.793 13.3125 935.309 13.3125C945.642 13.3125 955.793 15.1979 965.767 18.9583C975.736 22.7239 984.356 27.8125 991.621 34.2291L977.6 52.2291C971.876 46.9375 965.314 42.8281 957.913 39.8958C950.522 36.9687 942.986 35.5 935.309 35.5C925.543 35.5 916.58 37.8437 908.413 42.5208C900.246 47.1875 893.788 53.5364 889.038 61.5625C884.298 69.5781 881.934 78.4062 881.934 88.0416C881.934 97.8072 884.298 106.74 889.038 114.833C893.788 122.917 900.278 129.302 908.517 133.979C916.751 138.646 925.751 140.979 935.517 140.979C940.96 140.979 946.611 140.078 952.475 138.271C958.335 136.453 963.918 133.937 969.225 130.729V89.5Z" fill="#8D97A0"/>
<path d="M1025.72 161.5V14.9791H1050.43V139.104H1113.84V161.5H1025.72Z" fill="#8D97A0"/>
<path d="M1203 13.3125C1217.38 13.3125 1230.49 16.5937 1242.36 23.1458C1254.22 29.7031 1263.57 38.7031 1270.4 50.1458C1277.23 61.5937 1280.65 74.2239 1280.65 88.0416C1280.65 101.99 1277.23 114.682 1270.4 126.125C1263.57 137.573 1254.22 146.641 1242.36 153.333C1230.49 160.031 1217.38 163.375 1203 163.375C1188.63 163.375 1175.51 160.031 1163.65 153.333C1151.78 146.641 1142.44 137.573 1135.61 126.125C1128.77 114.682 1125.36 101.99 1125.36 88.0416C1125.36 74.2239 1128.77 61.5937 1135.61 50.1458C1142.44 38.7031 1151.78 29.7031 1163.65 23.1458C1175.51 16.5937 1188.63 13.3125 1203 13.3125ZM1203.21 35.7083C1193.72 35.7083 1184.93 38.052 1176.84 42.7291C1168.74 47.3958 1162.32 53.7083 1157.57 61.6666C1152.83 69.6145 1150.46 78.4062 1150.46 88.0416C1150.46 97.6666 1152.86 106.531 1157.67 114.625C1162.49 122.708 1168.91 129.125 1176.94 133.875C1184.97 138.615 1193.72 140.979 1203.21 140.979C1212.7 140.979 1221.42 138.615 1229.38 133.875C1237.34 129.125 1243.65 122.708 1248.32 114.625C1252.99 106.531 1255.34 97.6666 1255.34 88.0416C1255.34 78.4062 1252.99 69.6145 1248.32 61.6666C1243.65 53.7083 1237.34 47.3958 1229.38 42.7291C1221.42 38.052 1212.7 35.7083 1203.21 35.7083Z" fill="#8D97A0"/>
<path d="M1396.18 49.9375C1388.65 45.3281 1381.12 41.9114 1373.58 39.6875C1366.04 37.4531 1359.28 36.3333 1353.28 36.3333C1346.02 36.3333 1340.22 37.6979 1335.89 40.4166C1331.57 43.1406 1329.41 47.0104 1329.41 52.0208C1329.41 56.4948 1330.8 60.1979 1333.6 63.125C1336.39 66.0573 1339.87 68.3646 1344.05 70.0416C1348.25 71.7083 1354.12 73.7291 1361.66 76.1041C1371.56 79.177 1379.62 82.1406 1385.83 85C1392.03 87.8646 1397.33 92.1198 1401.72 97.7708C1406.12 103.427 1408.33 110.854 1408.33 120.062C1408.33 128.719 1405.98 136.286 1401.3 142.771C1396.64 149.26 1390.12 154.245 1381.74 157.729C1373.37 161.219 1363.81 162.958 1353.08 162.958C1341.77 162.958 1330.88 160.87 1320.41 156.687C1309.95 152.51 1300.88 146.786 1293.2 139.521L1303.89 118.167C1311.27 125.016 1319.4 130.354 1328.26 134.187C1337.12 138.021 1345.53 139.937 1353.49 139.937C1362 139.937 1368.7 138.302 1373.58 135.021C1378.46 131.745 1380.91 127.245 1380.91 121.521C1380.91 116.911 1379.48 113.141 1376.62 110.208C1373.75 107.281 1370.16 104.948 1365.83 103.208C1361.5 101.458 1355.65 99.4739 1348.26 97.25C1338.21 94.3229 1330.14 91.4583 1324.08 88.6666C1318 85.875 1312.77 81.6875 1308.37 76.1041C1303.98 70.5208 1301.78 63.1979 1301.78 54.125C1301.78 45.8906 1304.01 38.6666 1308.47 32.4583C1312.94 26.25 1319.23 21.4375 1327.33 18.0208C1335.42 14.6041 1344.7 12.8958 1355.16 12.8958C1364.37 12.8958 1373.43 14.2916 1382.37 17.0833C1391.29 19.875 1399.33 23.5729 1406.45 28.1666L1396.18 49.9375Z" fill="#8D97A0"/>
<path d="M1526.36 49.9375C1518.83 45.3281 1511.3 41.9114 1503.76 39.6875C1496.23 37.4531 1489.47 36.3333 1483.47 36.3333C1476.2 36.3333 1470.4 37.6979 1466.07 40.4166C1461.75 43.1406 1459.59 47.0104 1459.59 52.0208C1459.59 56.4948 1460.99 60.1979 1463.78 63.125C1466.57 66.0573 1470.06 68.3646 1474.24 70.0416C1478.43 71.7083 1484.3 73.7291 1491.84 76.1041C1501.74 79.177 1509.8 82.1406 1516.01 85C1522.22 87.8646 1527.51 92.1198 1531.9 97.7708C1536.31 103.427 1538.51 110.854 1538.51 120.062C1538.51 128.719 1536.16 136.286 1531.49 142.771C1526.82 149.26 1520.3 154.245 1511.92 157.729C1503.55 161.219 1493.99 162.958 1483.26 162.958C1471.95 162.958 1461.06 160.87 1450.59 156.687C1440.13 152.51 1431.06 146.786 1423.38 139.521L1434.07 118.167C1441.46 125.016 1449.58 130.354 1458.45 134.187C1467.31 138.021 1475.72 139.937 1483.67 139.937C1492.19 139.937 1498.88 138.302 1503.76 135.021C1508.64 131.745 1511.09 127.245 1511.09 121.521C1511.09 116.911 1509.66 113.141 1506.8 110.208C1503.94 107.281 1500.34 104.948 1496.01 103.208C1491.69 101.458 1485.83 99.4739 1478.45 97.25C1468.39 94.3229 1460.33 91.4583 1454.26 88.6666C1448.19 85.875 1442.95 81.6875 1438.55 76.1041C1434.16 70.5208 1431.97 63.1979 1431.97 54.125C1431.97 45.8906 1434.2 38.6666 1438.65 32.4583C1443.12 26.25 1449.41 21.4375 1457.51 18.0208C1465.6 14.6041 1474.88 12.8958 1485.34 12.8958C1494.55 12.8958 1503.62 14.2916 1512.55 17.0833C1521.48 19.875 1529.51 23.5729 1536.63 28.1666L1526.36 49.9375Z" fill="#8D97A0"/>
<path d="M17.3593 141.481L96.5573 0.68396L188.234 164.023H141.51L83.3489 60.2204L96.5416 52.8298L109.729 60.236L51.4218 164.023H4.68225L17.3593 141.481ZM43.7239 156.314L30.5416 148.898V133.773H42.5677V148.898L29.3802 141.491L96.5625 21.9183L163.568 141.502L150.37 148.898V133.773H162.396V148.898L149.208 156.299L83.3541 38.9652L96.5416 31.559L109.724 38.9756L43.7239 156.314Z" fill="#0161AE"/>
<path d="M157.525 41.3871V16.434H305.113V56.5121H236.306V41.3871H251.431V164.023H211.207V41.3871H226.332V56.5121H157.525V41.3871ZM187.775 41.3871H172.65V26.2621H241.457V148.898H226.332V133.773H236.306V148.898H221.181V26.2621H289.988V41.3871H274.863V31.559H289.988V46.6892H172.65V31.559H187.775V41.3871Z" fill="#0161AE"/>
<path d="M428.284 123.944H475.237V164.023H327.648V16.434H367.726V139.069H352.601V123.944H428.284ZM428.284 154.194H337.476V31.559H352.601V46.6892H342.773V31.559H357.898V148.898H342.773V133.773H460.112V148.898H444.987V139.069H460.112V154.194H428.284Z" fill="#0161AE"/>
<path d="M499.714 141.481L578.912 0.68396L670.589 164.023H623.865L565.704 60.2204L578.897 52.8298L592.084 60.236L533.777 164.023H487.037L499.714 141.481ZM526.079 156.314L512.897 148.898V133.773H524.923V148.898L511.735 141.491L578.918 21.9183L645.923 141.502L632.725 148.898V133.773H644.751V148.898L631.563 156.299L565.709 38.9652L578.897 31.559L592.079 38.9756L526.079 156.314Z" fill="#0161AE"/>
<path d="M729.367 16.434H830.003V56.5121H729.367C728.346 56.5121 727.466 56.6683 726.732 56.9704C725.992 57.2777 725.253 57.8038 724.513 58.5381C723.779 59.2725 723.258 60.0121 722.951 60.7517C722.643 61.4913 722.492 62.3663 722.492 63.3871C722.492 64.4027 722.643 65.2673 722.94 65.9808C723.237 66.6944 723.742 67.4027 724.456 68.1058C725.19 68.8298 725.93 69.3506 726.675 69.6527C727.43 69.9652 728.326 70.1163 729.367 70.1163H783.05C789.451 70.1163 795.456 71.2777 801.06 73.5954C806.664 75.9131 811.732 79.335 816.258 83.861C820.784 88.3871 824.206 93.4496 826.524 99.059C828.841 104.663 830.003 110.668 830.003 117.069C830.003 123.476 828.841 129.476 826.524 135.08C824.206 140.689 820.784 145.757 816.258 150.278C811.732 154.804 806.664 158.226 801.06 160.543C795.456 162.866 789.451 164.023 783.05 164.023H682.414V123.944H783.05C784.07 123.944 784.945 123.793 785.685 123.486C786.425 123.179 787.164 122.658 787.899 121.924C788.638 121.184 789.159 120.45 789.466 119.705C789.768 118.97 789.925 118.09 789.925 117.069C789.925 116.059 789.774 115.194 789.477 114.476C789.18 113.767 788.675 113.059 787.961 112.351C787.227 111.627 786.487 111.111 785.737 110.804C784.987 110.496 784.091 110.34 783.05 110.34H729.367C722.961 110.34 716.961 109.184 711.357 106.866C705.747 104.543 700.68 101.121 696.159 96.5954C691.633 92.0746 688.211 87.0069 685.893 81.3975C683.576 75.7933 682.414 69.7933 682.414 63.3871C682.414 56.986 683.576 50.9808 685.893 45.3767C688.211 39.7725 691.633 34.7048 696.159 30.1788C700.68 25.6579 705.747 22.2308 711.357 19.9131C716.961 17.5954 722.961 16.434 729.367 16.434ZM729.367 46.6892C726.971 46.6892 724.82 47.0798 722.919 47.8663C721.024 48.6527 719.232 49.8871 717.55 51.5694C715.862 53.2569 714.628 55.0433 713.846 56.9444C713.06 58.8454 712.664 60.9913 712.664 63.3871C712.664 65.7881 713.06 67.934 713.846 69.835C714.628 71.7308 715.862 73.5225 717.55 75.21C719.232 76.8923 721.024 78.1267 722.919 78.9131C724.82 79.6996 726.971 80.0902 729.367 80.0902H783.05C788.07 80.0902 792.794 81.0017 797.221 82.8194C801.659 84.6371 805.659 87.3142 809.227 90.8402C812.82 94.3871 815.539 98.3871 817.393 102.835C819.247 107.273 820.175 112.023 820.175 117.069C820.175 122.111 819.253 126.856 817.404 131.304C815.56 135.741 812.857 139.746 809.289 143.314C805.721 146.877 801.721 149.585 797.279 151.429C792.831 153.273 788.091 154.194 783.05 154.194H697.539V139.069H712.664V148.898H697.539V133.773H783.05C785.445 133.773 787.591 133.377 789.492 132.59C791.393 131.809 793.18 130.575 794.867 128.887C796.55 127.205 797.784 125.413 798.57 123.517C799.357 121.616 799.753 119.465 799.753 117.069C799.753 114.674 799.357 112.523 798.57 110.621C797.784 108.726 796.55 106.934 794.867 105.252C793.18 103.569 791.393 102.33 789.492 101.549C787.591 100.762 785.445 100.366 783.05 100.366H729.367C724.346 100.366 719.622 99.46 715.19 97.6423C710.758 95.8194 706.753 93.1475 703.185 89.6163C699.596 86.0694 696.872 82.0746 695.018 77.6267C693.169 73.184 692.242 68.4392 692.242 63.3871C692.242 58.3506 693.164 53.6058 695.008 49.1579C696.852 44.7152 699.56 40.7152 703.122 37.1475C706.69 33.5798 710.695 30.8767 715.133 29.0329C719.581 27.184 724.326 26.2621 729.367 26.2621H814.878V41.3871H799.753V31.559H814.878V46.6892H729.367Z" fill="#0161AE"/>
<path d="M30.5416 148.898L96.5416 31.5642L162.396 148.898H150.375L96.5416 52.835L42.5625 148.898H30.5416Z" fill="#0161AE"/>
<path d="M172.65 41.3975V31.5642H289.983V41.3975H236.296V148.898H226.337V41.3975H172.65Z" fill="#0161AE"/>
<path d="M428.273 139.064H460.107V148.898H342.773V31.5642H352.607V139.064H428.273Z" fill="#0161AE"/>
<path d="M512.897 148.898L578.897 31.5642L644.751 148.898H632.73L578.897 52.835L524.918 148.898H512.897Z" fill="#0161AE"/>
<path d="M729.372 31.5642H814.872V41.3975H729.372C723.3 41.3975 718.112 43.5538 713.81 47.8558C709.518 52.1475 707.372 57.3298 707.372 63.3975C707.372 69.4548 709.518 74.6163 713.81 78.8767C718.112 83.1267 723.3 85.2517 729.372 85.2517H783.039C791.841 85.2517 799.352 88.3558 805.56 94.5642C811.768 100.773 814.872 108.283 814.872 117.085C814.872 125.877 811.768 133.377 805.56 139.585C799.352 145.793 791.841 148.898 783.039 148.898H697.539V139.064H783.039C789.107 139.064 794.289 136.918 798.581 132.627C802.883 128.325 805.039 123.142 805.039 117.085C805.039 111.017 802.883 105.856 798.581 101.606C794.289 97.3454 789.107 95.21 783.039 95.21H729.372C720.565 95.21 713.06 92.1058 706.852 85.8975C700.643 79.6892 697.539 72.1892 697.539 63.3975C697.539 54.5954 700.643 47.085 706.852 40.8767C713.06 34.6683 720.565 31.5642 729.372 31.5642Z" fill="#0161AE"/>
</g>
<rect x="4.5" y="0.5" width="1534" height="164" stroke="black"/>
<rect x="4.5" y="0.5" width="1534" height="164" stroke="black" stroke-opacity="0.2"/>
</g>
<defs>
<filter id="filter0_dd_2_6" x="0" y="0" width="1543" height="173" filterUnits="userSpaceOnUse" color-interpolation-filters="sRGB">
<feFlood flood-opacity="0" result="BackgroundImageFix"/>
<feColorMatrix in="SourceAlpha" type="matrix" values="0 0 0 0 0 0 0 0 0 0 0 0 0 0 0 0 0 0 127 0" result="hardAlpha"/>
<feOffset dy="4"/>
<feGaussianBlur stdDeviation="2"/>
<feComposite in2="hardAlpha" operator="out"/>
<feColorMatrix type="matrix" values="0 0 0 0 0 0 0 0 0 0 0 0 0 0 0 0 0 0 0.25 0"/>
<feBlend mode="normal" in2="BackgroundImageFix" result="effect1_dropShadow_2_6"/>
<feColorMatrix in="SourceAlpha" type="matrix" values="0 0 0 0 0 0 0 0 0 0 0 0 0 0 0 0 0 0 127 0" result="hardAlpha"/>
<feOffset dy="4"/>
<feGaussianBlur stdDeviation="2"/>
<feComposite in2="hardAlpha" operator="out"/>
<feColorMatrix type="matrix" values="0 0 0 0 0 0 0 0 0 0 0 0 0 0 0 0 0 0 0.25 0"/>
<feBlend mode="normal" in2="effect1_dropShadow_2_6" result="effect2_dropShadow_2_6"/>
<feBlend mode="normal" in="SourceGraphic" in2="effect2_dropShadow_2_6" result="shape"/>
</filter>
<clipPath id="clip0_2_6">
<rect x="4" width="1535" height="165" fill="white"/>
</clipPath>
</defs>
</svg>
